<?xml version="1.0" encoding="UTF-8" standalone="no"?>
<svg
   viewBox="0 0 793.7007874015749 1122.5196850393702"
   width="793.7007874015749"
   height="1122.5196850393702"
   version="1.1"
   id="svg10"
   sodipodi:docname="logo.svg"
   inkscape:version="1.4.2 (ebf0e940, 2025-05-08)"
   xmlns:inkscape="http://www.inkscape.org/namespaces/inkscape"
   xmlns:sodipodi="http://sodipodi.sourceforge.net/DTD/sodipodi-0.dtd"
   xmlns="http://www.w3.org/2000/svg"
   xmlns:svg="http://www.w3.org/2000/svg">
  <sodipodi:namedview
     id="namedview10"
     pagecolor="#ffffff"
     bordercolor="#000000"
     borderopacity="0.25"
     inkscape:showpageshadow="2"
     inkscape:pageopacity="0.0"
     inkscape:pagecheckerboard="0"
     inkscape:deskcolor="#d1d1d1"
     inkscape:zoom="0.89887068"
     inkscape:cx="69.531693"
     inkscape:cy="537.89718"
     inkscape:window-width="2224"
     inkscape:window-height="1406"
     inkscape:window-x="0"
     inkscape:window-y="25"
     inkscape:window-maximized="0"
     inkscape:current-layer="g10" />
  <desc
     id="desc1">Sketch1.dxf - scale = 1.000000, origin = (0.000000, 0.000000), method = manual</desc>
  <defs
     id="defs4">
    <marker
       id="DistanceX"
       orient="auto"
       refX="0.0"
       refY="0.0"
       style="overflow:visible">
      <path
         d="M 3,-3 L -3,3 M 0,-5 L  0,5"
         style="stroke:#000000; stroke-width:0.5"
         id="path1" />
    </marker>
    <pattern
       id="Hatch"
       patternUnits="userSpaceOnUse"
       width="8"
       height="8"
       x="0"
       y="0">
      <path
         d="M8 4 l-4,4"
         stroke="#000000"
         stroke-width="0.25"
         linecap="square"
         id="path2" />
      <path
         d="M6 2 l-4,4"
         stroke="#000000"
         stroke-width="0.25"
         linecap="square"
         id="path3" />
      <path
         d="M4 0 l-4,4"
         stroke="#000000"
         stroke-width="0.25"
         linecap="square"
         id="path4" />
    </pattern>
    <symbol
       id="*MODEL_SPACE" />
    <symbol
       id="*PAPER_SPACE" />
  </defs>
  <g
     inkscape:groupmode="layer"
     inkscape:label="0"
     id="g10"
     style="display:inline">
    <path
       style="fill:#37c837;stroke-width:1.11251"
       d="m 119.59451,476.90533 c 0,-59.85894 0.47898,-65.53644 7.25849,-86.03724 7.85666,-23.75804 18.80261,-41.27756 37.0837,-59.35427 22.75242,-22.49804 44.38473,-34.27671 76.05132,-41.40953 9.55977,-2.15331 14.51598,-2.35982 66.78581,-2.78266 l 56.45973,-0.45674 v 55.70633 55.70632 l -39.77212,0.0193 c -44.87565,0.0218 -49.85266,0.60187 -62.58927,7.29478 -8.83599,4.64318 -18.80359,14.53235 -23.59342,23.40781 -6.0226,11.15975 -6.43353,15.00366 -6.43353,60.18116 v 41.48528 h -55.62535 -55.62536 z"
       id="path11" />
    <path
       style="fill:#ed8936;stroke-width:1.11251;fill-opacity:1"
       d="m 572.3849,489.00162 c 0,-26.21292 -0.45743,-43.85059 -1.23344,-47.55967 -4.09605,-19.57768 -24.58725,-38.76074 -44.93561,-42.06696 -3.67127,-0.59651 -24.5725,-1.08746 -46.44717,-1.09101 l -39.77213,-0.006 v -55.60585 -55.60585 l 38.65963,0.54687 c 78.02539,1.10371 81.75259,1.36253 98.735,6.85602 50.08227,16.2007 88.18955,56.34602 101.42174,106.84596 2.64578,10.09745 2.91221,13.43635 3.75247,47.02567 0.49745,19.88606 0.94177,46.54451 0.98735,59.241 l 0.0829,23.08452 H 628.01025 572.3849 Z"
       id="path13" />
    <path
       style="fill:#3182ce;stroke-width:1.11251;fill-opacity:1"
       d="m 298.70815,851.00897 c -47.03581,-0.64975 -52.58994,-0.92349 -61.18789,-3.01565 -35.57613,-8.65686 -65.8069,-28.32742 -87.47445,-56.91788 -8.67927,-11.45233 -20.43308,-34.77832 -24.23112,-48.08779 -4.35128,-15.24818 -4.96152,-23.79141 -5.76924,-80.7678 l -0.76096,-53.67847 h 55.78036 55.78037 v 41.66426 c 0,26.21292 0.45743,43.85059 1.23344,47.55967 2.80248,13.39489 15.29963,29.20171 28.75912,36.37555 11.49008,6.12415 17.21044,6.74805 62.0674,6.76955 l 40.32838,0.0193 v 55.62536 55.62535 l -6.39691,-0.22842 c -3.5183,-0.12563 -29.67613,-0.55 -58.1285,-0.94304 z"
       id="path16" />
    <path
       style="fill:#805ad5;stroke-width:1.11251;fill-opacity:1"
       d="m 439.99655,796.72046 v -55.79074 l 40.32839,-0.0193 c 44.97971,-0.0215 50.5617,-0.63708 62.24386,-6.8636 13.52944,-7.21112 25.74457,-22.71644 28.58266,-36.2815 0.77601,-3.70908 1.23344,-21.34675 1.23344,-47.55967 v -41.66426 h 55.62535 55.62536 l -0.13184,49.78469 c -0.0725,27.38158 -0.44797,72.8414 -0.83438,101.02181 l -0.70254,51.23712 -4.285,8.66602 c -8.10247,16.38649 -23.57267,28.4306 -39.38969,30.66633 -3.73696,0.52821 -49.88224,1.32792 -102.54505,1.77712 l -95.75056,0.81673 z"
       id="path17" />
    <path
       style="fill:#38a169;stroke-width:1.11251;fill-opacity:1"
       d="m 120.04545,476.98741 c 0.41853,-29.52315 1.26994,-57.6083 1.89202,-62.41143 3.72293,-28.74513 18.62454,-58.17473 40.87194,-80.71912 22.03185,-22.32598 44.66064,-35.2909 74.1546,-42.4861 10.13368,-2.47217 20.82735,-2.94519 84.27241,-3.72769 l 41.99714,-0.51797 v 55.57622 55.57622 l -39.77212,0.006 c -21.87467,0.004 -42.7759,0.4945 -46.44717,1.09101 -20.262,3.29219 -40.85695,22.57237 -44.93561,42.06696 -0.77601,3.70908 -1.23344,21.34675 -1.23344,47.55967 v 41.66426 h -55.78037 -55.78036 z"
       id="path18" />
  </g>
</svg>
